<?xml version="1.0" encoding="utf-8"?>
<!-- Generator: Adobe Illustrator 16.0.0, SVG Export Plug-In . SVG Version: 6.00 Build 0)  -->
<!DOCTYPE svg PUBLIC "-//W3C//DTD SVG 1.1//EN" "http://www.w3.org/Graphics/SVG/1.1/DTD/svg11.dtd">
<svg version="1.1" id="Layer_1" xmlns="http://www.w3.org/2000/svg" xmlns:xlink="http://www.w3.org/1999/xlink" x="0px" y="0px"
	 width="90px" height="40px"  xml:space="preserve">
<polyline fill="none" points="95.618,36.955 95.618,0 0,0 0,36.955 "/>
<path fill="#FFFFFF" d="M26.563,23.682c-0.039,0.109-0.644,2.203-2.124,4.365c-1.279,1.869-2.607,3.733-4.697,3.771
	c-2.053,0.039-2.714-1.22-5.062-1.22c-2.35,0-3.084,1.183-5.027,1.259c-2.019,0.075-3.556-2.022-4.845-3.884
	c-2.635-3.811-4.646-10.766-1.942-15.457c1.339-2.333,3.741-3.809,6.346-3.846c1.984-0.039,3.851,1.331,5.064,1.331
	c1.212,0,3.483-1.648,5.872-1.407c0.999,0.043,3.807,0.403,5.611,3.044c-0.142,0.09-3.351,1.957-3.315,5.838
	C22.485,22.119,26.517,23.664,26.563,23.682 M18.582,6.077c1.074-1.298,1.795-3.102,1.597-4.898
	c-1.544,0.057-3.414,1.028-4.52,2.324c-0.992,1.148-1.862,2.986-1.627,4.744C15.752,8.381,17.511,7.372,18.582,6.077"/>
<path fill="#FFFFFF" d="M44.924,17.615h-1.3l-0.711-2.241h-2.476l-0.677,2.241h-1.266l2.452-7.607h1.514L44.924,17.615z
	 M42.696,14.441l-0.644-1.986c-0.068-0.204-0.196-0.681-0.383-1.434h-0.023c-0.076,0.324-0.196,0.802-0.362,1.434l-0.632,1.986
	H42.696z"/>
<path fill="#FFFFFF" d="M50.556,17.615h-1.073l-0.066-0.836h-0.023c-0.385,0.645-0.964,0.967-1.74,0.967
	c-0.541,0-0.974-0.17-1.297-0.508c-0.385-0.415-0.576-1.04-0.576-1.874v-3.23h1.226v3.031c0,1.056,0.36,1.583,1.084,1.583
	c0.541,0,0.918-0.264,1.129-0.792c0.052-0.136,0.078-0.29,0.078-0.463v-3.359h1.228v3.902
	C50.524,16.555,50.534,17.081,50.556,17.615"/>
<path fill="#FFFFFF" d="M54.817,13.05h-1.349v2.665c0,0.678,0.238,1.018,0.714,1.018c0.219,0,0.399-0.021,0.545-0.066l0.032,0.928
	c-0.239,0.092-0.558,0.137-0.948,0.137c-0.481,0-0.859-0.146-1.13-0.439c-0.271-0.294-0.405-0.787-0.405-1.479V13.05h-0.803v-0.916
	h0.803v-1.011l1.192-0.364v1.375h1.349V13.05z"/>
<path fill="#FFFFFF" d="M60.652,17.615h-1.228v-3.121c0-0.985-0.369-1.477-1.105-1.477c-0.563,0-0.951,0.286-1.161,0.857
	c-0.038,0.12-0.058,0.267-0.058,0.439v3.302h-1.225V9.614H57.1v3.291h0.023c0.385-0.59,0.934-0.886,1.652-0.886
	c0.503,0,0.922,0.166,1.254,0.497c0.415,0.413,0.622,1.027,0.622,1.839V17.615z"/>
<path fill="#FFFFFF" d="M67.169,14.833c0,0.843-0.241,1.536-0.723,2.078c-0.504,0.557-1.175,0.836-2.011,0.836
	c-0.805,0-1.447-0.268-1.926-0.802c-0.478-0.534-0.717-1.209-0.717-2.021c0-0.852,0.246-1.548,0.739-2.09
	c0.493-0.543,1.158-0.814,1.994-0.814c0.805,0,1.452,0.268,1.942,0.802C66.936,13.341,67.169,14.012,67.169,14.833 M65.905,14.863
	c0-0.502-0.109-0.933-0.328-1.292c-0.256-0.435-0.621-0.651-1.096-0.651c-0.489,0-0.862,0.216-1.117,0.651
	c-0.219,0.359-0.328,0.798-0.328,1.314c0,0.503,0.109,0.933,0.328,1.292c0.264,0.436,0.632,0.652,1.105,0.652
	c0.467,0,0.832-0.221,1.097-0.662C65.792,15.801,65.905,15.365,65.905,14.863"/>
<path fill="#FFFFFF" d="M71.235,13.2c-0.12-0.023-0.247-0.035-0.382-0.035c-0.429,0-0.759,0.163-0.991,0.486
	c-0.202,0.286-0.303,0.647-0.303,1.084v2.881h-1.229v-3.756c0-0.632-0.011-1.207-0.031-1.726h1.061l0.045,1.043h0.034
	c0.128-0.359,0.331-0.648,0.61-0.865c0.271-0.195,0.564-0.292,0.879-0.292c0.113,0,0.217,0.007,0.307,0.023V13.2z"/>
<path fill="#FFFFFF" d="M73.524,10.484c0,0.219-0.072,0.396-0.215,0.53c-0.143,0.136-0.327,0.204-0.553,0.204
	c-0.202,0-0.373-0.07-0.512-0.208c-0.14-0.139-0.209-0.315-0.209-0.526c0-0.21,0.071-0.384,0.213-0.519
	c0.143-0.135,0.319-0.203,0.531-0.203c0.209,0,0.387,0.068,0.529,0.203S73.524,10.274,73.524,10.484 M73.394,17.615h-1.228v-5.481
	h1.228V17.615z"/>
<path fill="#FFFFFF" d="M78.848,17.615h-4.467V16.9l2.191-2.889c0.135-0.181,0.383-0.48,0.745-0.895h-2.722v-0.982h4.201v0.76
	l-2.146,2.845c-0.241,0.308-0.489,0.606-0.745,0.896h2.942V17.615z"/>
<path fill="#FFFFFF" d="M84.264,14.611c0,0.219-0.014,0.403-0.045,0.554h-3.652c0.016,0.542,0.191,0.957,0.529,1.242
	c0.31,0.258,0.709,0.385,1.197,0.385c0.541,0,1.033-0.088,1.478-0.26l0.192,0.844c-0.521,0.226-1.133,0.338-1.842,0.338
	c-0.851,0-1.52-0.25-2.005-0.75s-0.728-1.172-0.728-2.015c0-0.827,0.225-1.515,0.677-2.064c0.474-0.587,1.112-0.88,1.919-0.88
	c0.79,0,1.389,0.293,1.794,0.88C84.103,13.352,84.264,13.926,84.264,14.611 M83.103,14.294c0.007-0.361-0.071-0.674-0.237-0.938
	c-0.21-0.338-0.533-0.508-0.969-0.508c-0.398,0-0.723,0.165-0.971,0.497c-0.201,0.264-0.321,0.579-0.359,0.949H83.103z"/>
<path fill="#FFFFFF" d="M90.303,17.615h-1.084l-0.057-0.881h-0.033c-0.348,0.675-0.935,1.012-1.763,1.012
	c-0.661,0-1.212-0.26-1.647-0.779c-0.438-0.52-0.656-1.193-0.656-2.022c0-0.888,0.238-1.608,0.715-2.157
	c0.463-0.512,1.031-0.769,1.705-0.769c0.741,0,1.261,0.247,1.557,0.739V9.614h1.227v6.522
	C90.266,16.671,90.279,17.164,90.303,17.615 M89.04,15.307v-0.915c0-0.158-0.013-0.286-0.035-0.384
	c-0.068-0.294-0.215-0.541-0.44-0.74c-0.228-0.2-0.498-0.299-0.813-0.299c-0.453,0-0.81,0.18-1.07,0.541
	c-0.26,0.362-0.391,0.825-0.391,1.39c0,0.542,0.125,0.983,0.373,1.323c0.264,0.36,0.619,0.543,1.064,0.543
	c0.398,0,0.72-0.151,0.961-0.453C88.922,16.034,89.04,15.699,89.04,15.307"/>
<path fill="#FFFFFF" d="M44.172,30.603h-1.263c-0.12-0.226-0.287-0.825-0.497-1.803c-0.105-0.511-0.265-0.87-0.48-1.077
	c-0.214-0.207-0.524-0.311-0.931-0.311h-0.756v3.19h-1.21v-7.515c0.558-0.105,1.218-0.158,1.979-0.158
	c1.033,0,1.787,0.203,2.263,0.609c0.422,0.361,0.634,0.863,0.634,1.504c0,0.467-0.141,0.878-0.421,1.232
	c-0.25,0.315-0.576,0.545-0.978,0.688v0.022c0.52,0.196,0.878,0.701,1.074,1.514c0.15,0.634,0.258,1.072,0.327,1.312
	C44.018,30.211,44.105,30.475,44.172,30.603 M42.683,25.16c0-0.869-0.519-1.308-1.557-1.314c-0.392,0-0.686,0.027-0.881,0.079v2.571
	h0.858c0.482,0,0.865-0.123,1.151-0.367C42.54,25.882,42.683,25.56,42.683,25.16"/>
<path fill="#FFFFFF" d="M49.728,27.599c0,0.219-0.015,0.403-0.045,0.554h-3.652c0.017,0.541,0.193,0.956,0.531,1.242
	c0.308,0.257,0.707,0.384,1.196,0.384c0.541,0,1.033-0.087,1.478-0.259l0.19,0.844c-0.52,0.225-1.133,0.338-1.84,0.338
	c-0.851,0-1.519-0.25-2.004-0.75c-0.486-0.502-0.729-1.173-0.729-2.015c0-0.828,0.226-1.517,0.677-2.065
	c0.475-0.586,1.113-0.879,1.92-0.879c0.789,0,1.387,0.293,1.793,0.879C49.567,26.34,49.728,26.914,49.728,27.599 M48.567,27.282
	c0.007-0.36-0.07-0.674-0.236-0.937c-0.211-0.34-0.533-0.508-0.969-0.508c-0.398,0-0.722,0.164-0.97,0.496
	c-0.203,0.264-0.323,0.58-0.361,0.948H48.567z"/>
<path fill="#FFFFFF" d="M54.157,29.025c0,0.512-0.188,0.921-0.563,1.229c-0.376,0.308-0.897,0.462-1.558,0.462
	c-0.627,0-1.155-0.123-1.592-0.373l0.26-0.904c0.42,0.252,0.867,0.379,1.341,0.379c0.623,0,0.935-0.23,0.935-0.688
	c0-0.203-0.066-0.369-0.203-0.502c-0.135-0.131-0.375-0.261-0.721-0.388c-0.977-0.361-1.464-0.886-1.464-1.577
	c0-0.475,0.181-0.867,0.541-1.184c0.362-0.315,0.84-0.473,1.435-0.473c0.543,0,1.006,0.108,1.389,0.326l-0.26,0.865
	c-0.353-0.205-0.725-0.309-1.115-0.309c-0.256,0-0.454,0.061-0.598,0.181c-0.143,0.12-0.214,0.274-0.214,0.463
	c0,0.187,0.075,0.342,0.226,0.463c0.127,0.112,0.375,0.235,0.742,0.371C53.684,27.73,54.157,28.281,54.157,29.025"/>
<path fill="#FFFFFF" d="M59.858,27.599c0,0.219-0.014,0.403-0.045,0.554h-3.651c0.015,0.541,0.192,0.956,0.53,1.242
	c0.309,0.257,0.707,0.384,1.197,0.384c0.541,0,1.032-0.087,1.477-0.259l0.191,0.844c-0.52,0.225-1.133,0.338-1.84,0.338
	c-0.852,0-1.521-0.25-2.006-0.75c-0.484-0.502-0.729-1.173-0.729-2.015c0-0.828,0.226-1.517,0.678-2.065
	c0.475-0.586,1.113-0.879,1.919-0.879c0.79,0,1.388,0.293,1.794,0.879C59.698,26.34,59.858,26.914,59.858,27.599 M58.698,27.282
	c0.007-0.36-0.071-0.674-0.237-0.937c-0.21-0.34-0.534-0.508-0.969-0.508c-0.397,0-0.722,0.164-0.97,0.496
	c-0.203,0.264-0.322,0.58-0.36,0.948H58.698z"/>
<rect x="61" y="22.602" fill="#FFFFFF" width="1.228" height="8"/>
<rect x="63.756" y="22.602" fill="#FFFFFF" width="1.228" height="8"/>
<path fill="#FFFFFF" d="M71.028,27.599c0,0.219-0.014,0.403-0.045,0.554h-3.652c0.016,0.541,0.191,0.956,0.53,1.242
	c0.309,0.257,0.708,0.384,1.196,0.384c0.541,0,1.033-0.087,1.478-0.259l0.192,0.844c-0.521,0.225-1.133,0.338-1.842,0.338
	c-0.851,0-1.52-0.25-2.004-0.75c-0.486-0.502-0.729-1.173-0.729-2.015c0-0.828,0.225-1.517,0.677-2.065
	c0.474-0.586,1.113-0.879,1.919-0.879c0.79,0,1.389,0.293,1.794,0.879C70.867,26.34,71.028,26.914,71.028,27.599 M69.867,27.282
	c0.007-0.36-0.071-0.674-0.237-0.937c-0.21-0.34-0.533-0.508-0.969-0.508c-0.398,0-0.723,0.164-0.971,0.496
	c-0.201,0.264-0.321,0.58-0.359,0.948H69.867z"/>
<path fill="#FFFFFF" d="M75.075,26.188c-0.121-0.023-0.248-0.035-0.383-0.035c-0.427,0-0.758,0.163-0.99,0.486
	c-0.203,0.285-0.304,0.646-0.304,1.084v2.881H72.17v-3.756c0-0.633-0.01-1.207-0.032-1.727H73.2l0.045,1.043h0.033
	c0.129-0.359,0.332-0.648,0.611-0.865c0.27-0.194,0.564-0.291,0.88-0.291c0.112,0,0.215,0.006,0.306,0.022V26.188z"/>
</svg>
